<svg width="13" height="14" viewBox="0 0 13 14" fill="none" xmlns="http://www.w3.org/2000/svg">
<path d="M6.79998 13.7999C8.09998 13.7999 9.29998 13.5 10.3 12.9C11.3 12.2999 12 11.5 12.4 10.6L9.89998 9.39995C9.59998 9.89995 9.19997 10.3 8.69997 10.6C8.19997 10.9 7.59998 11.1 6.89998 11.1C5.99998 11.1 5.19998 10.8 4.49998 10.2C3.79998 9.59995 3.49998 8.89995 3.39998 7.89995H12.8C12.9 7.69995 12.9 7.49995 12.9 7.29995C12.9 7.09995 12.9 6.79995 12.9 6.59995C12.9 5.39995 12.7 4.39995 12.2 3.39995C11.7 2.39995 11 1.69995 9.99998 1.09995C9.09998 0.499951 7.89998 0.199951 6.49998 0.199951C5.29998 0.199951 4.19997 0.499951 3.19997 1.09995C2.19997 1.69995 1.39998 2.49995 0.899979 3.49995C0.299979 4.49995 0.0999756 5.69995 0.0999756 6.99995C0.0999756 8.29995 0.399979 9.39995 0.899979 10.5C1.49998 11.5 2.19998 12.4 3.29998 13C4.29998 13.5 5.39998 13.7999 6.79998 13.7999ZM6.49998 2.69995C7.29998 2.69995 7.99998 2.99995 8.59998 3.49995C9.19998 3.99995 9.49998 4.59995 9.49998 5.39995H3.39998C3.59998 4.49995 3.89998 3.89995 4.49998 3.39995C5.09998 2.99995 5.79998 2.69995 6.49998 2.69995Z" fill="#232E35"/>
</svg>
